<?xml version="1.0" encoding="utf-8"?>
<!-- Svg Vector Icons : http://www.onlinewebfonts.com/icon -->
<!DOCTYPE svg PUBLIC "-//W3C//DTD SVG 1.1//EN" "http://www.w3.org/Graphics/SVG/1.1/DTD/svg11.dtd">
<svg version="1.1" xmlns="http://www.w3.org/2000/svg" xmlns:xlink="http://www.w3.org/1999/xlink" x="0px" y="0px" viewBox="0 0 1000 1000" enable-background="new 0 0 1000 1000" xml:space="preserve">
<metadata> Svg Vector Icons : http://www.onlinewebfonts.com/icon </metadata>
<g><path d="M500,990c-66.1,0-130.3-13-190.7-38.5c-58.4-24.7-110.8-60-155.8-105c-45-45-80.3-97.4-105-155.8C23,630.3,10,566.1,10,500s13-130.3,38.5-190.7c24.7-58.4,60-110.8,105-155.8c45-45,97.4-80.3,155.8-105C369.7,23,433.9,10,500,10s130.3,13,190.7,38.5c58.3,24.7,110.8,60,155.7,105c45,45,80.3,97.4,105,155.8C977,369.7,990,433.9,990,500c0,66.1-13,130.3-38.5,190.7c-24.7,58.3-60,110.8-105,155.8c-45,45-97.4,80.3-155.7,105C630.3,977,566.2,990,500,990z M500,20.4C235.6,20.4,20.4,235.6,20.4,500c0,264.4,215.1,479.6,479.6,479.6c264.4,0,479.6-215.1,479.6-479.6C979.6,235.6,764.4,20.4,500,20.4z"/><path d="M696.4,626.9l0-0.2c-2.5-1.3-5.2-2.5-7.8-3.8c-1.6-0.8-3.2-1.6-4.8-2.3c-5.4-2.5-11-5-16.8-7.2c-1.1-0.5-2.2-0.9-3.2-1.4c-19.6-7.6-40.8-13.7-63.5-18.2c-3-9.8-5.1-20.4-6.3-32c23.2-2.3,92.6-20,85.5-28.8c-22.4-27.7-13-73.1-9-103.3c8.5-65.4,19.8-95.5-6.1-169c-19.6-55.4-79.7-107.8-153.2-102.7c-29.2,2-50,10-79.5,30c-62.3,7.3-105.2,62.8-100.4,159.8c2.7,55.7,46.4,117.6,6.7,183.2c-6.8,11.2,62.8,44.6,101.6,39.3c-0.5,7.1-1.4,14.3-2.9,21.2C409.3,596,384,603.1,361,612c-1.1,0.5-2.1,0.9-3.2,1.3c-5.8,2.3-11.4,4.7-16.8,7.3c-1.7,0.8-3.2,1.5-4.8,2.3c-2.6,1.3-5.4,2.5-7.8,3.8l0,0.2c-54.1,28.8-88,70.1-88,116h543.9C784.4,697.1,750.4,655.8,696.4,626.9L696.4,626.9z M521.5,184.8c52.7,7,94,47.6,108.9,100.4c-22.3-38.6-61.4-66.8-108.4-73.1c-58-7.6-112,20.1-141.2,66.7C402.8,217,460,176.6,521.5,184.8L521.5,184.8z M432.6,505.6c-1-1.2-2.1-2.4-3-3.6c-13.8-17.5-25.9-37.6-33.7-58.5c-2.4-21.5-2.9-43.3,0-64.9c4.8-36.5,19.2-72.2,50.6-104.4c4.7,11.3,152.4,64.9,176.4,102.9c0.2,0.5,0.4,1,0.7,1.4c-2.5,43.2-27.8,80-64,98.7c-4.5-6.8-13.8-11.4-24.5-11.4c-15.2,0.1-27.4,9.5-27.3,21c0.1,11.5,12.4,20.8,27.6,20.7c15.1-0.1,27.4-9.5,27.3-21c0-1.3-0.2-2.6-0.5-3.9c34.6-17.3,59.1-49.3,66.4-91.8c0.1,0.2,0.2,0.5,0.3,0.8c2.5,9.7,3.4,21.5,3.1,34.1c-6.2,25.1-19.2,51.7-37.9,76.6c-0.9,1.2-1.8,2.4-2.7,3.6c-0.5,0.7-1.1,1.4-1.6,2.1c-0.5,0.6-0.9,1.1-1.3,1.6c-22.4,27.8-47.8,47.5-66.5,52.1c-3.2,0.8-6.4,1.2-9.2,1c-1.3,0-2.6-0.2-4.1-0.5c-18.1-3.3-43.9-21-67.1-46.3C438.5,512.5,435.5,509.1,432.6,505.6L432.6,505.6z M616.2,627c-1.3,1.4-2.6,2.7-3.8,4.1c-27.9,29.8-62.4,62.5-100,62.5c-35.5,0-68.3-29.2-95.3-57.5c-1.3-1.4-2.5-2.6-3.7-4c-7.8-8.3-15.1-16.5-21.8-23.6c13.6-3.6,28-6.6,42.8-9c1.9-0.3,3.9-0.6,5.9-0.8c0.2-0.8,0.5-1.6,0.7-2.4c0.2-0.9,0.4-1.8,0.6-2.7c0.2-0.9,0.4-1.8,0.6-2.7c0,0,0,0,0-0.1c1.7-8.6,2.6-17.4,2.9-26c0.5-14.8-0.8-29.1-2.3-40.2c17.2,17.7,35.3,31.2,50.8,38.3c6.9,3.1,13.3,5,18.8,5.3c0.6,0,1.1,0,1.7,0c7.1,0,15.2-2.6,24-7.1c15.8-8.3,33.5-23.4,49.7-42.4c-0.8,14.1,0.2,40.2,0.1,40.4c-0.4,0.5,3.7,24.2,6.4,33.6v0.1c0.3,1,0.6,1.8,0.9,2.8c0.3,1,0.6,1.9,0.8,2.8c0.3,0.7,0.5,1.5,0.7,2.2c2.1,0.3,4.2,0.7,6.2,1.1c10.5,1.9,20.6,4.2,30.4,6.8C627.9,614.1,622.2,620.4,616.2,627L616.2,627z"/></g>
</svg>