<?xml version="1.0" encoding="utf-8"?>
<!-- Svg Vector Icons : http://www.onlinewebfonts.com/icon -->
<!DOCTYPE svg PUBLIC "-//W3C//DTD SVG 1.1//EN" "http://www.w3.org/Graphics/SVG/1.1/DTD/svg11.dtd">
<svg version="1.1" xmlns="http://www.w3.org/2000/svg" xmlns:xlink="http://www.w3.org/1999/xlink" x="0px" y="0px" viewBox="0 0 1000 1000" enable-background="new 0 0 1000 1000" xml:space="preserve">
<metadata> Svg Vector Icons : http://www.onlinewebfonts.com/icon </metadata>
<g><path d="M674.4,805.4L569.7,662.8c-15.1-20.5-46.4-27.4-69.7-15.2l-97.7,51.1c-43.3,25.1-116.7-74.8-143.7-124.9c-39.3-73.1-65-175.6-30.4-195.8l102-53.6c23.2-12.2,34-41,23.8-64.1l-70.4-159.9c-10.1-23-39.3-35.8-64.7-28.5l-170,49c-25.5,7.3-41.9,44-38.5,71.9c0,0-9.4,185.1,128.5,431.7c137.8,246.6,307.7,351.2,307.7,351.2c26.5,19.1,76.5,18,89.9,3.6l129.1-106.5C685.5,856.2,689.5,826,674.4,805.4z"/><path d="M476.8,515h70.5c19.4,0.9,29.6,9.1,30.7,24.3c-1,16.2-10.2,24.3-27.6,24.3H418.5c-19.4,0-29.1-8.1-29.1-24.3c-1-4.8,1.5-11,7.7-18.6c8.2-8.6,16.3-17.2,24.5-25.7c33.7-33.4,58.3-61,73.6-83c9.2-11.4,13.8-22.9,13.8-34.3c-2.1-17.2-11.2-26.7-27.6-28.6c-16.4,0-28.1,11-35.3,32.9c-6.1,18.1-14.8,26.7-26.1,25.8c-19.4,0-29.1-8.6-29.1-25.8c5.1-48.7,35.8-76.3,92-83c55.2,3.8,84.3,29.1,87.4,75.8c0,26.7-23,64.4-69,113C489,501.2,480.8,510.3,476.8,515z"/><path d="M723.6,506.5h-95.1c-17.4,0-26.6-7.2-27.6-21.5c-1-5.7,1-11.4,6.1-17.2l87.4-147.4c7.1-14.3,20.4-21.5,39.9-21.5c29.6,1.9,45,17.2,46,45.8v113h6.1c16.3,1.9,25.5,10,27.6,24.3c-2.1,15.3-11.3,23.4-27.6,24.3h-6.1v31.5c0,17.2-9.7,25.8-29.1,25.8c-19.4,0-28.6-8.6-27.6-25.8L723.6,506.5L723.6,506.5z M723.6,457.8V356.2h-1.5l-52.1,101.6H723.6z"/><path d="M394.5,116.7c51-26.2,109.7-41,172-40.8c196,0.5,354,149.3,352.9,332.2c-0.8,127.3-78.5,237.7-191.7,292.8c0,0-29.7,21.3-13.8,44.7c17,28.5,46.9,13.3,46.9,13.3C896.2,692.8,989.1,560.7,990,408.3C991.3,189,801.9,10.7,566.9,10c-74.4-0.2-144.4,17.5-205.5,48.6c0,0-33.9,18.4-14.8,46.1C365.6,132.3,394.5,116.7,394.5,116.7z"/></g>
</svg>